<?xml version="1.0" standalone="no"?>
<!DOCTYPE svg PUBLIC "-//W3C//DTD SVG 20010904//EN"
 "http://www.w3.org/TR/2001/REC-SVG-20010904/DTD/svg10.dtd">
<svg version="1.0" xmlns="http://www.w3.org/2000/svg"
 width="648.000000pt" height="338.000000pt" viewBox="0 0 648.000000 338.000000"
 preserveAspectRatio="xMidYMid meet">

<g transform="translate(0.000000,338.000000) scale(0.100000,-0.100000)"
fill="#000000" stroke="none">
<path d="M4050 3006 c-128 -27 -221 -98 -274 -209 -20 -40 -52 -128 -71 -197
-69 -238 -130 -346 -279 -496 -103 -103 -196 -169 -341 -242 -108 -54 -184
-82 -665 -253 -173 -61 -367 -136 -431 -165 -72 -34 -129 -54 -152 -54 -19 0
-86 16 -149 36 -365 115 -623 119 -636 10 -5 -39 21 -72 76 -100 27 -14 53
-36 60 -50 6 -15 19 -29 27 -32 24 -9 18 -32 -13 -48 -15 -8 -34 -26 -41 -40
-10 -18 -30 -30 -67 -41 -118 -34 -115 -142 4 -174 103 -29 302 -3 527 69 175
56 211 54 327 -23 46 -30 113 -72 151 -92 37 -20 67 -38 67 -40 0 -5 -109 -37
-495 -145 -198 -55 -383 -107 -411 -115 -47 -14 -60 -25 -209 -195 l-159 -180
-186 0 c-131 0 -190 -4 -198 -12 -18 -18 -14 -46 7 -58 14 -7 887 -10 2751
-10 1864 0 2737 3 2751 10 25 14 25 46 0 60 -12 6 -93 10 -194 10 l-174 0
-101 142 c-56 79 -157 222 -225 318 l-123 175 -189 3 -190 2 -16 29 c-28 48
-126 89 -257 106 -62 8 -126 22 -143 30 -46 24 -77 82 -101 187 l-22 96 36 93
c72 189 82 258 84 584 0 209 4 301 14 329 7 23 39 68 76 107 84 90 135 190
135 268 1 108 -42 165 -141 188 -39 9 -86 30 -130 60 -103 68 -192 85 -310 59z
m163 -71 c33 -9 86 -34 124 -60 36 -25 72 -45 79 -45 8 0 14 -10 14 -25 0 -14
8 -29 21 -36 18 -9 20 -17 15 -52 -12 -76 -92 -150 -176 -165 -50 -8 -71 -32
-51 -56 34 -41 159 1 226 76 25 27 40 37 47 30 15 -15 -6 -48 -74 -119 -102
-107 -102 -110 -103 -453 -1 -246 -4 -308 -19 -375 -57 -254 -135 -405 -285
-556 -129 -129 -297 -224 -481 -274 -111 -29 -127 -31 -111 -12 22 27 42 106
92 354 41 203 49 257 39 268 -15 18 -46 19 -57 3 -8 -14 -49 -208 -83 -397
-44 -240 -125 -321 -428 -425 -144 -49 -299 -86 -363 -86 -36 0 -40 2 -29 16
18 20 191 153 315 241 127 89 151 123 182 256 13 56 33 115 44 130 25 34 21
61 -9 65 -46 7 -74 -39 -109 -177 -13 -54 -33 -108 -47 -125 -13 -18 -68 -62
-122 -100 l-97 -67 -66 11 c-250 42 -502 142 -720 285 -46 30 -99 58 -118 61
-59 11 -163 -3 -258 -36 -134 -46 -249 -71 -355 -77 -94 -5 -166 5 -163 23 0
5 23 17 49 26 29 11 61 32 79 53 l30 35 145 3 145 2 0 30 c0 29 -1 30 -60 36
-33 4 -86 7 -117 8 -32 1 -58 5 -58 10 0 4 48 16 107 26 131 21 133 22 133 50
0 41 -17 44 -152 23 l-127 -20 -27 32 c-15 18 -48 41 -73 52 -41 17 -44 21
-27 30 28 16 179 12 277 -6 46 -9 143 -35 214 -58 108 -35 144 -42 210 -42 76
0 86 3 185 51 110 53 206 89 655 247 468 164 596 231 779 406 162 154 247 300
315 537 22 78 51 164 63 190 43 92 135 162 241 182 63 13 77 12 140 -4z m347
-233 c0 -20 -4 -31 -10 -27 -5 3 -10 25 -10 48 0 31 3 38 10 27 5 -8 10 -30
10 -48z m-311 -1546 c6 -29 26 -77 44 -107 44 -72 90 -95 235 -113 74 -10 131
-24 165 -40 l52 -24 -258 -1 c-289 -1 -285 -2 -353 71 -73 79 -73 71 -14 135
29 32 64 75 78 95 13 21 28 38 32 38 4 0 12 -24 19 -54z m-219 -207 c23 -42
85 -101 134 -127 l51 -27 477 -5 478 -5 194 -275 194 -275 -1139 -3 c-626 -1
-1652 -1 -2280 0 l-1141 3 126 145 c100 114 135 148 164 157 20 6 145 42 277
78 132 37 347 98 477 136 l238 69 105 -36 c58 -19 147 -44 198 -55 88 -19 105
-25 96 -32 -142 -108 -159 -127 -159 -176 0 -91 159 -85 471 15 166 54 239 85
304 132 41 29 69 39 165 58 190 39 343 102 480 198 36 25 68 46 72 46 4 0 12
-9 18 -21z"/>
<path d="M4100 2800 c-24 -24 -25 -43 -4 -64 33 -34 104 -4 104 44 0 40 -67
53 -100 20z"/>
</g>
</svg>
