<?xml version="1.0" standalone="no"?>
<!DOCTYPE svg PUBLIC "-//W3C//DTD SVG 20010904//EN"
 "http://www.w3.org/TR/2001/REC-SVG-20010904/DTD/svg10.dtd">
<svg version="1.0" xmlns="http://www.w3.org/2000/svg"
 width="692.000000pt" height="446.000000pt" viewBox="0 0 692.000000 446.000000"
 preserveAspectRatio="xMidYMid meet">

<g transform="translate(0.000000,446.000000) scale(0.100000,-0.100000)"
fill="#000000" stroke="none">
<path d="M4693 3753 c9 -2 25 -2 35 0 9 3 1 5 -18 5 -19 0 -27 -2 -17 -5z"/>
<path d="M5045 3643 c11 -2 25 -14 30 -26 6 -12 21 -27 35 -34 19 -10 21 -13
7 -13 -10 0 -15 -5 -12 -10 4 -6 11 -8 16 -5 11 7 11 -3 -1 -30 -8 -19 -9 -19
-9 2 -1 12 -9 27 -18 32 -13 8 -14 10 -4 11 8 0 11 3 8 6 -4 4 -14 1 -22 -6
-9 -7 -30 -14 -48 -16 -45 -3 -127 -27 -127 -36 0 -4 -18 -11 -40 -14 -22 -4
-40 -10 -40 -15 0 -12 -67 -39 -97 -39 -14 0 -21 -4 -18 -10 4 -6 -8 -10 -27
-11 -18 -1 -40 -2 -48 -3 -8 -2 -24 -3 -35 -4 -17 -2 -18 -4 -5 -12 10 -6 4
-8 -21 -4 -25 4 -40 1 -52 -10 -8 -9 -28 -17 -44 -19 -16 -2 -33 -6 -38 -8 -6
-3 -28 -7 -50 -8 -22 -2 -48 -7 -57 -12 -13 -7 -18 -6 -18 3 0 9 -2 10 -8 1
-4 -6 -19 -10 -34 -10 -24 2 -26 5 -21 27 3 14 10 33 15 43 5 10 8 20 6 23 -2
2 -30 -54 -61 -124 -31 -70 -74 -156 -95 -191 -46 -80 -151 -194 -207 -227
-69 -40 -199 -89 -355 -134 -547 -157 -801 -263 -1135 -475 -310 -196 -344
-212 -480 -222 -63 -4 -108 0 -213 21 -201 40 -355 33 -458 -21 -28 -14 -40
-27 -42 -47 -3 -22 2 -29 32 -41 19 -8 50 -15 68 -15 40 0 50 -7 65 -42 18
-40 74 -52 213 -44 74 5 111 4 105 -3 -5 -5 -56 -25 -112 -45 -159 -55 -203
-81 -203 -122 0 -18 -14 -30 -61 -55 -33 -18 -65 -41 -71 -53 -32 -59 125 -77
269 -31 43 14 123 50 178 80 55 30 138 74 185 98 l85 42 135 -1 c120 0 148 -4
250 -32 519 -143 667 -171 948 -179 l194 -6 -59 -59 c-32 -33 -100 -96 -150
-140 -75 -65 -93 -85 -93 -107 0 -64 76 -78 225 -42 277 67 496 211 599 394
32 56 37 60 112 91 71 28 162 75 235 122 26 17 28 16 65 -14 65 -51 130 -67
284 -67 184 0 365 14 387 30 17 12 17 15 0 49 -30 64 -85 87 -249 103 -115 11
-149 32 -193 115 l-28 53 56 115 c90 185 127 358 127 598 0 292 28 385 145
487 167 146 195 185 195 270 0 74 -11 85 -78 84 -31 -1 -48 -4 -37 -6z"/>
<path d="M4661 3574 c0 -11 3 -14 6 -6 3 7 2 16 -1 19 -3 4 -6 -2 -5 -13z"/>
<path d="M4703 3543 c9 -2 23 -2 30 0 6 3 -1 5 -18 5 -16 0 -22 -2 -12 -5z"/>
</g>
</svg>
